HIERARCHY
ROOT hip
{
  OFFSET 0.0 0.0 0.0
  CHANNELS 6 Xposition Yposition Zposition Zrotation Yrotation Xrotation
  JOINT torso
  {
    OFFSET 0.0 0.0 0.0
    CHANNELS 3 Zrotation Xrotation Yrotation
    JOINT neck
    {
      OFFSET -8.059630999999968 325.56260699999996 64.6221310000002
      CHANNELS 3 Zrotation Xrotation Yrotation
      JOINT head
      {
        OFFSET 34.685424000000125 375.1179809999999 232.79357900000002
        CHANNELS 3 Zrotation Xrotation Yrotation
        End Site
        {
          OFFSET 0.0 0.0 0.0
        }
      }
    }
    JOINT left_collar
    {
      OFFSET -8.059630999999968 325.56260699999996 64.6221310000002
      CHANNELS 3 Zrotation Xrotation Yrotation
      JOINT left_upper_arm
      {
        OFFSET -124.124665 -15.370300999999927 25.582641999999964
        CHANNELS 3 Zrotation Xrotation Yrotation
        JOINT left_forearm
        {
          OFFSET -268.19913399999996 105.06054699999993 114.74548300000004
          CHANNELS 3 Zrotation Xrotation Yrotation
          JOINT left_hand
          {
            OFFSET -235.82003099999991 -10.198180999999977 -38.67455999999993
            CHANNELS 3 Zrotation Xrotation Yrotation
            End Site
            {
              OFFSET 0.0 0.0 0.0
            }
          }
        }
      }
    }
    JOINT right_collar
    {
      OFFSET -8.059630999999968 325.56260699999996 64.6221310000002
      CHANNELS 3 Zrotation Xrotation Yrotation
      JOINT right_upper_arm
      {
        OFFSET 162.73931899999997 -2.8598030000000563 26.244994999999903
        CHANNELS 3 Zrotation Xrotation Yrotation
        JOINT right_forearm
        {
          OFFSET 284.6506340000001 103.07031299999994 145.84521499999994
          CHANNELS 3 Zrotation Xrotation Yrotation
          JOINT right_hand
          {
            OFFSET 226.332337 -12.198241999999937 -49.27258299999994
            CHANNELS 3 Zrotation Xrotation Yrotation
            End Site
            {
              OFFSET 0.0 0.0 0.0
            }
          }
        }
      }
    }
  }
}
MOTION
Frames: 19
Frame Time: 0.01
429.37834080440007 220.94991274157064 759.8951093173952 1.4500109790581877 0.7357080367028815 -3.580501399938344 -0.13954820673772877 -1.2284666705928209 -0.0012149502937665068 -0.8312676326449457 -1.7016796248701374 0.6797697940077692 0.0 0.0 0.0 0.26397209881319567 -0.1107043633389877 1.310777816620539 -3.687089594824442 1.5162335061134582 7.342496921258323 -2.066117246942293 0.3395352536562308 -0.03722238977644912 0.0 0.0 0.0 -0.14063312532451713 0.08688893778203609 3.39218224250242 4.087521673947816 -0.35325973661088134 -4.371131549200163 -3.493278075802677 -1.2203859940935828 -5.274955377788232 0.0 0.0 0.0
429.43841395705505 220.91443016158527 759.7985843475268 1.4815475280554584 0.7133760863625016 -3.5801256532484826 -0.15137640497649185 -1.2203687000365155 0.0014437607515042695 -0.831668325890191 -1.7118123279630844 0.6809875057071865 0.0 0.0 0.0 0.2652585083125218 -0.11146141626717411 1.318787378012939 -3.695823158094997 1.5179990121272218 7.354224487960314 -2.069619483825652 0.3404417613898097 -0.05075938647762898 0.0 0.0 0.0 -0.14222649718297978 0.08733405407488716 3.3995061661947994 4.076704956383014 -0.3335546767314534 -4.407875068636229 -3.4952819657291605 -1.2207477473747184 -5.27296908635873 0.0 0.0 0.0
429.49835174858 220.87988054109707 759.6986904426365 1.5133188030851663 0.6912943891393233 -3.5797597872556968 -0.1630243558191534 -1.2126480426426516 0.0040544713095333005 -0.8319318751020534 -1.7215334643407685 0.6820794673851629 0.0 0.0 0.0 0.26652048805992734 -0.11229294596406948 1.3273504199354351 -3.705387804988298 1.519226634877212 7.365357704709814 -2.07035069737495 0.34081616434751644 -0.061095532157626004 0.0 0.0 0.0 -0.1437290936088911 0.0877669449448854 3.4070915833060518 4.065172060122607 -0.3133499923839792 -4.445062274315543 -3.4984764288651844 -1.2215221051464669 -5.2720518187315255 0.0 0.0 0.0
429.55806980102426 220.8464974329059 759.591016923053 1.5451675240069773 0.6698616665217021 -3.5789754107288863 -0.17430990460836365 -1.2053672718726458 0.006577882935846961 -0.8318429135264591 -1.731851077807599 0.6830058033673815 0.0 0.0 0.0 0.2677755479555729 -0.11317911494445079 1.336336092727347 -3.7151936347469205 1.520127998776954 7.375904139262586 -2.069726205499253 0.3409402545802158 -0.07025713253964855 0.0 0.0 0.0 -0.14513979196240887 0.08818253433282434 3.414684053575107 4.0516941061379805 -0.29178706430425067 -4.483401330297393 -3.5001811705795483 -1.221847196486158 -5.270560536067254 0.0 0.0 0.0
429.61753228036724 220.81451517286246 759.4707659859018 1.576950201294285 0.6495003667267513 -3.5772867822207006 -0.18506630704501958 -1.1985739304395127 0.008978319805001923 -0.8311664931206545 -1.7439232590535674 0.6837284745474944 0.0 0.0 0.0 0.26903991365508856 -0.11409348339626671 1.3455590428095185 -3.7245454398110818 1.5209688008434967 7.385912718549698 -2.069456854438163 0.3411526262102687 -0.08064541674412032 0.0 0.0 0.0 -0.14646147572551454 0.08857550201568076 3.4219767690863807 4.034905499968729 -0.2679144017591608 -4.523681043911217 -3.4973217068073805 -1.2207326910931664 -5.266589830308548 0.0 0.0 0.0
429.67674006724013 220.78415775034853 759.3328595911981 1.608537626924156 0.6306490593415505 -3.5741572066170857 -0.19514793425470867 -1.192298454322827 0.01122494583264888 -0.8296520349776759 -1.7590428394330169 0.6842122419826936 0.0 0.0 0.0 0.27032794272869565 -0.11500286737626872 1.354777400667065 -3.732643310300224 1.5220701386092972 7.3954774326397335 -2.071543309562847 0.34184734104812253 -0.09502293372517619 0.0 0.0 0.0 -0.1477011605419116 0.08894033890490885 3.4286121634427493 4.013327017843785 -0.24070486755149906 -4.56675762535911 -3.486466036706068 -1.2170716857918076 -5.257982868724491 0.0 0.0 0.0
429.7357138615718 220.75562351165354 759.1720563480465 1.6398137290491657 0.6137538042175184 -3.5690073244153377 -0.20443481625123208 -1.1865527519848225 0.013292722872335553 -0.8270379275764305 -1.7786179860807068 0.6844255942154484 0.0 0.0 0.0 0.2716519242231859 -0.11586745581498442 1.3636934273689412 -3.738584541488625 1.523809089816859 7.404740392907939 -2.078263898457126 0.34347044621930056 -0.11649351269360234 0.0 0.0 0.0 -0.1488702893312002 0.08927147957521758 3.434185842391546 3.9853930936864987 -0.20907525085601533 -4.613541431413791 -3.4638732729256714 -1.209657554136153 -5.242344247272405 0.0 0.0 0.0
429.7944721744647 220.7290655903654 758.9830753294041 1.6706727783355533 0.5992585627102792 -3.5612251165273197 -0.2128358165996124 -1.181329503479774 0.015163067701047797 -0.8230566745323181 -1.8041489289531727 0.6843415885953333 0.0 0.0 0.0 0.27302230585917897 -0.11664120254617542 1.3719570162066406 -3.741366889972325 1.5266184717179043 7.413894173894058 -2.0921555271257 0.346513827371538 -0.14847617333666746 0.0 0.0 0.0 -0.1499852146295175 0.08956351557343203 3.4382528585506216 3.9494827242293082 -0.17190770921039875 -4.664984304216384 -3.4255538954950295 -1.197206060048017 -5.217053857816082 0.0 0.0 0.0
429.85300429565393 220.7045681769914 758.7607235398257 1.7010150422801475 0.5875947310133872 -3.5501773433290054 -0.22029032179961427 -1.1766021953244168 0.016824185219709725 -0.8174404498358401 -1.8372011677562077 0.6839385457352669 0.0 0.0 0.0 0.2744483635589498 -0.1172724964891984 1.3791720957219107 -3.739893215897748 1.5309857106602203 7.423183382065045 -2.115987307528506 0.35150590765285367 -0.19467359344945745 0.0 0.0 0.0 -0.15106784663718073 0.08981148242748596 3.4403362092514405 3.903953233741212 -0.1280725233459241 -4.722068013669396 -3.3673408094010933 -1.1783828487425223 -5.1792809701445 0.0 0.0 0.0
429.91123847780443 220.68211898754817 758.5000236338759 1.7307410758311499 0.5791699069016685 -3.535222068480683 -0.22676841864900807 -1.1723258691822107 0.018271074298771908 -0.8099268784262466 -1.8793756310715455 0.68320052968144 0.0 0.0 0.0 0.2759392990577299 -0.11770510216843819 1.3849058486992076 -3.7329775271221233 1.5374507630038972 7.432905412479479 -2.152726711317216 0.3589987807089241 -0.25903595435941273 0.0 0.0 0.0 -0.15214640319082742 0.09001120263611548 3.4399373211533497 3.8471759858757735 -0.07645155344683922 -4.785794167629748 -3.2849698763830415 -1.1518361991965111 -5.125997929207991 0.0 0.0 0.0
429.96900575338475 220.66157856236987 758.1963384529324 1.7597449146217101 0.5743560521226125 -3.515721880295337 -0.23226962251660466 -1.1684385371841317 0.019505221267240955 -0.8002648219481825 -1.9322763818134263 0.6821175420957242 0.0 0.0 0.0 0.27750572204293467 -0.11787935295582465 1.3887005394825624 -3.7193524078298057 1.5466030470706782 7.443410377975228 -2.2054982937302996 0.3695514972573797 -0.3457211544579731 0.0 0.0 0.0 -0.1532561614408121 0.09015965786322018 3.4365481937585587 3.7775730111833643 -0.015961761258951542 -4.8571757722240445 -3.1741681011048892 -1.1162346667805425 -5.053993167064512 0.0 0.0 0.0
430.0259999988118 220.6426473143266 757.8454890312112 1.7879065026436294 0.5734772819517687 -3.4910574028600156 -0.2368203067523708 -1.1648632060977644 0.020534013771876258 -0.7882199157171914 -1.9974765742921587 0.6806853564788707 0.0 0.0 0.0 0.27916144213810773 -0.11773356932254285 1.3900876155160968 -3.697677772408849 1.5590773720497921 7.455100224991723 -2.277535297512632 0.38370940597557784 -0.45905247601697463 0.0 0.0 0.0 -0.15444008905081344 0.09025535762227845 3.42966479463651 3.6936534466741437 0.0544218265991751 -4.937230417459661 -3.030747229519563 -1.0703089792307974 -4.9598836030114715 0.0 0.0 0.0
430.08173508711303 220.62483153867564 757.4438629156873 1.8150837378003146 0.5767975959892147 -3.460640673701578 -0.24047006106102625 -1.1615104559639455 0.02136992321733044 -0.7735795783545633 -2.076483462312296 0.6789049198293621 0.0 0.0 0.0 0.280925462599989 -0.11720566334625174 1.388603612198342 -3.6665508399770323 1.5755488814705858 7.4684270836237046 -2.3721247288705154 0.4019796722689463 -0.6034747882237607 0.0 0.0 0.0 -0.15574923183056702 0.0902986700889696 3.418801221676074 3.59404866432537 0.1356442946698736 -5.026974849695091 -2.850700203132289 -1.0128972885603835 -4.840126915209205 0.0 0.0 0.0
430.1355002276612 220.60740987707982 756.988509916447 1.841104553374605 0.5845089444723693 -3.4239279507392673 -0.24328726476818577 -1.1582815256806411 0.022029515512856163 -0.7561572058023854 -2.170703331367971 0.6767812562322654 0.0 0.0 0.0 0.2828240335234051 -0.11623487939562174 1.3838072501837597 -3.624517181457519 1.5967270628362462 7.483890933765562 -2.4925467734931583 0.42480335069375663 -0.7835102619319628 0.0 0.0 0.0 -0.15724275688448483 0.09029208376601817 3.403504070168235 3.477544996076142 0.22855066563797474 -5.1274204948511874 -2.6302977283850786 -0.9429926355420789 -4.691034567593329 0.0 0.0 0.0
430.1863148762683 220.5894019706272 756.4772227032288 1.8657594680255358 0.5967200807546098 -3.380431503983939 -0.24535419205300343 -1.1550718515559018 0.022532356258077143 -0.7357952703960966 -2.2814072802432803 0.6743218210387755 0.0 0.0 0.0 0.284892593515757 -0.11476361069068097 1.375296990235552 -3.570082655537516 1.6233489067794553 7.502036698650251 -2.6420096685044068 0.4525246531719309 -1.003714365241713 0.0 0.0 0.0 -0.1589875912448368 0.09024037589800439 3.383366373498601 3.343113034442467 0.33386780844836594 -5.2395693367318765 -2.3661821700340773 -0.8597912575633262 -4.508786820379811 0.0 0.0 0.0
430.2328848928122 220.56954121145156 755.9085999532881 1.8887950301993814 0.6134466700789297 -3.3297299547694057 -0.2467619688808974 -1.1517749757391111 0.022899877688726446 -0.7123670742138094 -2.409698807689856 0.6715342751661912 0.0 0.0 0.0 0.28717741379575146 -0.11273922321374133 1.362728221861133 -3.501726026764088 1.6561713244473633 7.523450896158861 -2.8235813459984214 0.48535831907318067 -1.268632626903541 0.0 0.0 0.0 -0.16105764579208837 0.09015067311959296 3.3580404388224703 3.1899325883080047 0.45218877653783013 -5.3644094513277025 -2.0554560575305216 -0.7627401695267179 -4.289451199280115 0.0 0.0 0.0
430.27356189547413 220.54625358358322 755.2820900300937 1.9099085565719025 0.63460310879163 -3.2714767484515517 -0.24760567949601534 -1.1482866940391252 0.023154271365081826 -0.6857769520067476 -2.5564841666066744 0.6684236746382797 0.0 0.0 0.0 0.28973676259470055 -0.11011581225322498 1.3458292153940017 -3.417912048971277 1.695962949647163 7.548757985884794 -3.0401192985715086 0.5233562383274161 -1.582758339738529 0.0 0.0 0.0 -0.16353266179605214 0.09003239966773165 3.327248880766582 3.0174124902588133 0.5839598540253503 -5.502909460297242 -1.695762698362438 -0.6515822775619754 -4.029006016443431 0.0 0.0 0.0
430.30630798028113 220.51764455528777 754.5980134529021 1.928744523003604 0.6599964658395029 -3.205406380710008 -0.24797988013492975 -1.144509259626208 0.023317463676588122 -0.655958780755228 -2.722446427901915 0.6649890991997298 0.0 0.0 0.0 0.2926414270374966 -0.10685581276951561 1.3244149575821014 -3.3171047956382353 1.7434954663913442 7.57861655287562 -3.2942001726136367 0.5663746896665062 -1.9504910837500025 0.0 0.0 0.0 -0.16649675373576991 0.0898971167079929 3.2907931672677977 2.825204574585631 0.7294705323614552 -5.65601119720026 -1.2853567145022744 -0.5263971557194307 -3.7233705008212357 0.0 0.0 0.0
430.3286681234279 220.48149584271283 753.8575627401775 1.9448929158076724 0.6893228998988505 -3.131338043945186 -0.247974724605572 -1.1403554148634583 0.023410221516013522 -0.6228727325660415 -2.90802414416973 0.6612197771283954 0.0 0.0 0.0 0.29597445569791087 -0.10293138397816921 1.2983980147313945 -3.1977810190551175 1.7995346190261463 7.613715478451301 -3.58805056308466 0.6140437197756761 -2.3760957254793578 0.0 0.0 0.0 -0.17003674322090062 0.08975826204160452 3.2485590365017063 2.613211269889117 0.8888466008958729 -5.824619976710452 -0.8231627438120436 -0.3876355373706679 -3.368442882507722 0.0 0.0 0.0
